<svg width="299" height="273" viewBox="0 0 299 273" fill="none" xmlns="http://www.w3.org/2000/svg">
<g clip-path="url(#clip0_502_26925)">
<path d="M227.175 94.3183L246.127 168.369C253.435 196.923 236.297 225.853 207.743 233.161L144.542 249.336C118.653 255.962 92.27 242.431 82.2707 218.42C81.2566 216.042 80.3841 213.426 79.7508 210.951L60.7983 136.9L227.175 94.3183Z" fill="#1AA562"/>
<path d="M227.175 94.3183L60.7983 136.9L62.9908 145.467L229.367 102.885L227.175 94.3183Z" fill="#177E4D"/>
<path d="M226.413 94.5131L61.369 136.754C55.0871 138.362 48.4415 134.586 46.785 128.114C45.1772 121.832 48.9528 115.186 55.4251 113.53L220.469 71.2889C226.751 69.6811 233.397 73.4567 235.053 79.9291C236.71 86.4014 232.885 92.8566 226.413 94.5131Z" fill="#1AA562"/>
<path d="M162.071 110.981L125.902 120.238C121.714 121.309 117.411 118.76 116.339 114.572L110.249 90.7766C109.177 86.5886 111.726 82.2851 115.914 81.2133L152.083 71.9563C156.271 70.8844 160.575 73.434 161.646 77.6219L167.737 101.417C168.808 105.605 166.259 109.909 162.071 110.981Z" fill="#1AA562"/>
<path d="M189.027 184.605C204.377 180.677 213.635 165.049 209.707 149.699C205.778 134.35 190.15 125.091 174.801 129.02C159.451 132.948 150.193 148.576 154.121 163.926C158.05 179.275 173.678 188.534 189.027 184.605Z" fill="white"/>
<path d="M137.63 197.761C152.979 193.832 162.238 178.204 158.309 162.854C154.381 147.505 138.753 138.246 123.403 142.175C108.054 146.103 98.7951 161.731 102.724 177.081C106.652 192.431 122.28 201.689 137.63 197.761Z" fill="white"/>
<path d="M244.86 163.421L246.176 168.56C253.484 197.115 236.345 226.044 207.791 233.352L144.591 249.527C118.701 256.153 92.3183 242.622 82.319 218.611C107.24 226.431 134.698 227.516 161.92 220.549C196.756 211.633 225.472 190.694 244.86 163.421Z" fill="#177E4D"/>
<path d="M114.705 43.9989C124.268 49.6646 130.18 58.4961 131.084 66.7836C123.191 70.0208 112.556 68.8887 103.232 63.3647C93.6688 57.699 87.7575 48.8675 86.8534 40.58C94.7467 37.3428 105.381 38.4749 114.705 43.9989Z" fill="#1AA562"/>
<path d="M132.261 64.2516L129.406 64.9824L137.932 98.2958L140.787 97.565L132.261 64.2516Z" fill="#1AA562"/>
<path d="M135.074 38.7862C129.408 48.3495 128.466 58.9349 131.655 66.6378C140.133 65.685 148.916 59.5833 154.44 50.2591C160.105 40.6958 161.047 30.1103 157.858 22.4074C149.571 23.3116 140.788 29.4132 135.074 38.7862Z" fill="#1AA562"/>
<path d="M282.605 149.228C281.508 139.195 274.147 131.769 266.164 132.642C258.18 133.514 252.598 142.355 253.695 152.388C254.792 162.421 262.152 169.847 270.136 168.974C278.119 168.102 283.702 159.261 282.605 149.228Z" fill="#1AA562"/>
<path d="M58.7316 223.051C66.1526 219.982 69.0409 209.932 65.1829 200.606C61.325 191.28 52.1816 186.208 44.7606 189.278C37.3396 192.347 34.4512 202.396 38.3092 211.723C42.1672 221.049 51.3106 226.121 58.7316 223.051Z" fill="#1AA562"/>
<path d="M134.17 184.244C142.055 182.226 146.811 174.198 144.793 166.313C142.775 158.428 134.747 153.672 126.862 155.69C118.977 157.708 114.221 165.736 116.239 173.621C118.257 181.506 126.285 186.262 134.17 184.244Z" fill="#030104"/>
<path d="M185.568 171.09C193.453 169.072 198.209 161.044 196.191 153.158C194.173 145.273 186.145 140.517 178.26 142.535C170.375 144.553 165.619 152.582 167.637 160.467C169.655 168.352 177.683 173.108 185.568 171.09Z" fill="#030104"/>
</g>
<defs>
<clipPath id="clip0_502_26925">
<rect width="252.5" height="216.934" fill="white" transform="translate(0 62.6064) rotate(-14.356)"/>
</clipPath>
</defs>
</svg>
